SplineFontDB: 3.0
FontName: OxygenMono-Regular
FullName: Oxygen Mono
FamilyName: Oxygen Mono
Weight: Book
Copyright: Copyright (c) 2012, Vernon Adams (vern@newtypography.co.uk), with Reserved Font Names 'Oxygen'
Version: 0.201; ttfautohint (v0.8) -r 50 -G 200 -x
ItalicAngle: 0
UnderlinePosition: -119
UnderlineWidth: 119
Ascent: 1638
Descent: 410
sfntRevision: 0x00003333
LayerCount: 2
Layer: 0 0 "Back"  1
Layer: 1 0 "Fore"  0
FSType: 0
OS2Version: 0
OS2_WeightWidthSlopeOnly: 0
OS2_UseTypoMetrics: 1
CreationTime: 1345291289
ModificationTime: 1361732772
PfmFamily: 49
TTFWeight: 400
TTFWidth: 5
LineGap: 0
VLineGap: 0
OS2TypoAscent: 1600
OS2TypoAOffset: 0
OS2TypoDescent: -448
OS2TypoDOffset: 0
OS2TypoLinegap: 0
OS2WinAscent: 1600
OS2WinAOffset: 0
OS2WinDescent: 448
OS2WinDOffset: 0
HheadAscent: 1600
HheadAOffset: 0
HheadDescent: -448
HheadDOffset: 0
OS2Vendor: 'newt'
MarkAttachClasses: 1
DEI: 91125
LangName: 1033 "" "" "" "newtypography : Oxygen Mono" "" "Version 0.2" "" "Oxygen Mono is a trademark of vernon adams." "Vernon Adams" "Vernon Adams" "Copyright (c) 2011-12 by vernon adams. All rights reserved." "newtypography.co.uk" "newtypography.co.uk" "" "http://scripts.sil.org/OFL" "" "Oxygen Mono" "Regular" "Oxygen Mono" 
PickledData: "(dp1
S'com.typemytype.robofont.foreground.layerStrokeColor'
p2
(F0.5
F0
F0.5
F0.69999999999999996
tp3
sS'com.typemytype.robofont.b.layerStrokeColor'
p4
(F0.5
F1
F0
F0.69999999999999996
tp5
sS'com.typemytype.robofont.layerOrder'
p6
(S'b'
tp7
sS'com.typemytype.robofont.segmentType'
p8
S'curve'
p9
sS'org.robofab.glyphOrder'
p10
(S'A'
S'Aacute'
S'Abreve'
S'Acircumflex'
S'Adieresis'
S'Agrave'
S'Amacron'
S'Aogonek'
S'Aring'
S'Atilde'
S'AE'
S'B'
S'C'
S'Cacute'
S'Ccaron'
S'Ccedilla'
S'Ccircumflex'
S'Cdotaccent'
S'D'
S'Eth'
S'Dcaron'
S'Dcroat'
S'E'
S'Eacute'
S'Ecaron'
S'Ecircumflex'
S'Edieresis'
S'Edotaccent'
S'Egrave'
S'Emacron'
S'Eogonek'
S'F'
S'G'
S'Gbreve'
S'Gcircumflex'
S'Gcommaaccent'
S'Gdotaccent'
S'H'
S'Hbar'
S'Hcircumflex'
S'I'
S'IJ'

StartChar: A
Encoding: 65 65 0
Width: 1229
VWidth: 0
Flags: HW
PickledData: "(dp1
S'com.typemytype.robofont.layerData'
p2
(dp3
s."
LayerCount: 2
UndoRedoHistory
Layer: 1
Undoes
EndUndoes
Redoes
EndRedoes
EndUndoRedoHistory
Fore
SplineSet
648 1342 m 5
 1032 0 l 5
 860 0 l 5
 734 444 l 5
 371 444 l 5
 245 0 l 5
 74 0 l 5
 457 1342 l 5
 648 1342 l 5
406 562 m 5
 699 562 l 5
 555 1172 l 5
 406 562 l 5
EndSplineSet
EndChar

StartChar: B
Encoding: 66 66 1
Width: 1229
VWidth: 0
Flags: HW
PickledData: "(dp1
S'com.typemytype.robofont.layerData'
p2
(dp3
s."
LayerCount: 2
UndoRedoHistory
Layer: 1
Undoes
EndUndoes
Redoes
EndRedoes
EndUndoRedoHistory
Fore
SplineSet
1002 401 m 0
 1002 106 772 12 465 12 c 2
 142 12 l 1
 142 1354 l 1
 418 1354 l 2
 698 1354 932 1304 932 1024 c 0
 932 861 828 778 692 741 c 1
 866 716 1002 583 1002 401 c 0
483 663 m 2
 310 663 l 1
 310 143 l 1
 466 143 l 2
 711 143 824 199 824 410 c 0
 824 607 690 663 483 663 c 2
443 800 m 2
 611 800 756 837 756 993 c 0
 756 1204 660 1221 390 1222 c 1
 310 1222 l 1
 310 800 l 1
 443 800 l 2
EndSplineSet
EndChar

StartChar: C
Encoding: 67 67 2
Width: 1229
VWidth: 0
Flags: HW
PickledData: "(dp1
S'com.typemytype.robofont.layerData'
p2
(dp3
s."
LayerCount: 2
UndoRedoHistory
Layer: 1
Undoes
EndUndoes
Redoes
EndRedoes
EndUndoRedoHistory
Fore
SplineSet
983 1234 m 1
 893 1134 l 1
 831 1187 762 1227 655 1227 c 0
 417 1227 291 966 291 673 c 0
 291 365 420 117 646 117 c 0
 754 117 831 157 894 214 c 1
 983 109 l 1
 900 29 787 -22 634 -22 c 0
 330 -22 114 273 114 675 c 0
 114 1095 342 1364 648 1364 c 0
 783 1364 891 1329 983 1234 c 1
EndSplineSet
EndChar

StartChar: D
Encoding: 68 68 3
Width: 1229
VWidth: 0
Flags: HW
PickledData: "(dp1
S'com.typemytype.robofont.layerData'
p2
(dp3
S'b'
(dp4
S'name'
p5
S'D'
sS'lib'
p6
(dp7
sS'unicodes'
p8
(tsS'width'
p9
I1229
sS'contours'
p10
(tsS'components'
p11
(tsS'anchors'
p12
(tsss."
LayerCount: 2
UndoRedoHistory
Layer: 1
Undoes
EndUndoes
Redoes
EndRedoes
EndUndoRedoHistory
Fore
SplineSet
154 1342 m 5
 353 1342 l 6
 786 1342 996 1077 996 652 c 4
 996 221 791 0 341 0 c 6
 154 0 l 5
 154 1342 l 5
338 131 m 6
 718 131 820 311 820 652 c 4
 820 992 725 1210 339 1210 c 6
 322 1210 l 5
 322 131 l 5
 338 131 l 6
EndSplineSet
EndChar

StartChar: E
Encoding: 69 69 4
Width: 1229
VWidth: 0
Flags: HW
PickledData: "(dp1
S'com.typemytype.robofont.layerData'
p2
(dp3
s."
LayerCount: 2
UndoRedoHistory
Layer: 1
Undoes
EndUndoes
Redoes
EndRedoes
EndUndoRedoHistory
Fore
SplineSet
371 616 m 5
 371 131 l 5
 980 131 l 5
 967 0 l 5
 202 0 l 5
 202 1342 l 5
 950 1342 l 5
 936 1210 l 5
 371 1210 l 5
 371 759 l 5
 906 759 l 5
 906 616 l 5
 371 616 l 5
EndSplineSet
EndChar

StartChar: F
Encoding: 70 70 5
Width: 1229
VWidth: 0
Flags: HW
LayerCount: 2
UndoRedoHistory
Layer: 1
Undoes
EndUndoes
Redoes
EndRedoes
EndUndoRedoHistory
Fore
SplineSet
388 615 m 1
 388 0 l 1
 220 0 l 1
 220 1342 l 1
 970 1342 l 1
 954 1210 l 1
 388 1210 l 1
 388 761 l 1
 931 761 l 1
 931 615 l 1
 388 615 l 1
EndSplineSet
EndChar

StartChar: G
Encoding: 71 71 6
Width: 1229
VWidth: 0
Flags: HW
PickledData: "(dp1
S'com.typemytype.robofont.layerData'
p2
(dp3
s."
HStem: -22 140<478 815> 562 138<575 836> 1227 137<511 831>
VStem: 92 176<391 912> 836 156<148 562>
LayerCount: 2
UndoRedoHistory
Layer: 0
Undoes
EndUndoes
Redoes
EndRedoes
EndUndoRedoHistory
Back
SplineSet
1012 1282 m 1
 925.494873261 1335.02243244 841.992234263 1358.62390126 764.470962028 1358.62390126 c 0
 495.13450536 1358.62390126 298 1073.72712609 298 748 c 0
 298 422 416 130 693 130 c 0
 811 130 889 158 929 190 c 1
 929 625 l 1
 639 625 l 1
 639 778 l 1
 1102 778 l 1
 1102 120 l 1
 1001 43 875 -25 675 -25 c 0
 284 -25 102 328 102 750 c 1
 101.999996386 1176.85663367 375.465387519 1516.04708901 730.170234099 1516.04708901 c 0
 840.513917285 1516.04708901 958.719504011 1483.22211958 1079 1410 c 1
 1012 1282 l 1
EndSplineSet
UndoRedoHistory
Layer: 1
Undoes
EndUndoes
Redoes
EndRedoes
EndUndoRedoHistory
Fore
SplineSet
911 1130 m 5
 844 1193 770 1227 658 1227 c 4
 414 1226 268 955 268 673 c 4
 268 380 375 117 624 117 c 4
 730 117 800 142 836 171 c 5
 836 562 l 5
 575 562 l 5
 575 700 l 5
 992 700 l 5
 992 108 l 5
 901 39 788 -22 608 -22 c 4
 256 -22 92 295 92 675 c 4
 92 1092 346 1364 646 1364 c 4
 792 1364 885 1329 971 1253 c 5
 911 1130 l 5
EndSplineSet
EndChar

StartChar: H
Encoding: 72 72 7
Width: 1229
VWidth: 0
Flags: W
HStem: 0 21G<126 294 812 980> 632 138<294 812>
VStem: 126 168<0 632 770 1342> 812 168<0 632 770 1342>
LayerCount: 2
UndoRedoHistory
Layer: 1
Undoes
EndUndoes
Redoes
EndRedoes
EndUndoRedoHistory
Fore
SplineSet
294 0 m 1
 126 0 l 1
 126 1342 l 1
 294 1342 l 1
 294 770 l 1
 812 770 l 1
 812 1342 l 1
 980 1342 l 1
 980 0 l 1
 812 0 l 1
 812 632 l 1
 294 632 l 1
 294 0 l 1
EndSplineSet
EndChar

StartChar: I
Encoding: 73 73 8
Width: 1229
VWidth: 0
Flags: HW
HStem: 0 131<175 465 634 932> 1210 131<175 465 634 932>
VStem: 465 168<131 1210>
LayerCount: 2
UndoRedoHistory
Layer: 1
Undoes
EndUndoes
Redoes
EndRedoes
EndUndoRedoHistory
Fore
SplineSet
175 1210 m 1
 175 1342 l 1
 932 1342 l 1
 932 1210 l 1
 634 1210 l 1
 634 131 l 1
 932 131 l 1
 932 0 l 1
 175 0 l 1
 175 131 l 1
 465 131 l 1
 465 1210 l 1
 175 1210 l 1
EndSplineSet
EndChar

StartChar: J
Encoding: 74 74 9
Width: 1229
VWidth: 0
Flags: HW
PickledData: "(dp1
S'com.typemytype.robofont.layerData'
p2
(dp3
s."
LayerCount: 2
UndoRedoHistory
Layer: 1
Undoes
EndUndoes
Redoes
EndRedoes
EndUndoRedoHistory
Fore
SplineSet
163 0 m 1
 162 136 l 1
 243 129 334 113 417 113 c 0
 557 113 673 157 673 352 c 2
 673 1210 l 1
 288 1210 l 1
 288 1342 l 1
 842 1342 l 1
 842 399 l 2
 842 57 673 -14 419 -14 c 0
 341 -14 255 -7 163 0 c 1
EndSplineSet
EndChar

StartChar: K
Encoding: 75 75 10
Width: 1229
VWidth: 0
Flags: HW
LayerCount: 2
UndoRedoHistory
Layer: 1
Undoes
EndUndoes
Redoes
EndRedoes
EndUndoRedoHistory
Fore
SplineSet
834 1342 m 1
 1044 1342 l 1
 595 741 l 1
 1074 0 l 1
 860 0 l 1
 465 630 l 1
 358 505 l 1
 358 0 l 1
 190 0 l 1
 190 1342 l 1
 358 1342 l 1
 358 696 l 1
 834 1342 l 1
EndSplineSet
EndChar

StartChar: L
Encoding: 76 76 11
Width: 1229
VWidth: 0
Flags: HW
LayerCount: 2
UndoRedoHistory
Layer: 1
Undoes
EndUndoes
Redoes
EndRedoes
EndUndoRedoHistory
Fore
SplineSet
441 131 m 1
 959 131 l 1
 950 0 l 1
 273 0 l 1
 273 1342 l 1
 441 1342 l 1
 441 131 l 1
EndSplineSet
EndChar

StartChar: M
Encoding: 77 77 12
Width: 1229
VWidth: 0
Flags: HW
PickledData: "(dp1
S'com.typemytype.robofont.layerData'
p2
(dp3
s."
LayerCount: 2
UndoRedoHistory
Layer: 1
Undoes
EndUndoes
Redoes
EndRedoes
EndUndoRedoHistory
Fore
SplineSet
302 1152 m 5
 302 0 l 5
 135 0 l 5
 135 1342 l 5
 364 1342 l 5
 556 713 l 5
 748 1342 l 5
 972 1342 l 5
 972 0 l 5
 809 0 l 5
 809 1152 l 5
 650 572 l 5
 462 572 l 5
 302 1152 l 5
EndSplineSet
EndChar

StartChar: N
Encoding: 78 78 13
Width: 1229
VWidth: 0
Flags: HW
LayerCount: 2
UndoRedoHistory
Layer: 1
Undoes
EndUndoes
Redoes
EndRedoes
EndUndoRedoHistory
Fore
SplineSet
970 0 m 1
 772 0 l 1
 288 1085 l 1
 288 0 l 1
 135 0 l 1
 135 1342 l 1
 328 1342 l 1
 820 260 l 1
 820 1342 l 1
 970 1342 l 1
 970 0 l 1
EndSplineSet
EndChar

StartChar: O
Encoding: 79 79 14
Width: 1229
VWidth: 0
Flags: HW
LayerCount: 2
UndoRedoHistory
Layer: 1
Undoes
EndUndoes
Redoes
EndRedoes
EndUndoRedoHistory
Fore
SplineSet
553 -22 m 4
 248 -22 111 303 111 672 c 4
 111 1011 218 1364 553 1364 c 4
 888 1364 994 1011 994 672 c 4
 994 303 858 -22 553 -22 c 4
553 1227 m 4
 376 1227 287 981 287 671 c 4
 287 361 377 117 553 117 c 4
 729 117 818 361 818 671 c 4
 818 981 730 1227 553 1227 c 4
EndSplineSet
EndChar

StartChar: P
Encoding: 80 80 15
Width: 1229
VWidth: 0
Flags: HW
PickledData: "(dp1
S'com.typemytype.robofont.layerData'
p2
(dp3
s."
LayerCount: 2
UndoRedoHistory
Layer: 1
Undoes
EndUndoes
Redoes
EndRedoes
EndUndoRedoHistory
Fore
SplineSet
999 956 m 0
 999 633 780 554 496 554 c 2
 357 554 l 1
 357 0 l 1
 189 0 l 1
 189 1342 l 1
 497 1342 l 2
 775 1342 999 1248 999 956 c 0
357 688 m 1
 554 688 l 2
 719 688 836 775 836 948 c 0
 836 1133 717 1210 554 1210 c 2
 357 1210 l 1
 357 688 l 1
EndSplineSet
EndChar

StartChar: Q
Encoding: 81 81 16
Width: 1229
VWidth: 0
Flags: HW
LayerCount: 2
UndoRedoHistory
Layer: 1
Undoes
EndUndoes
Redoes
EndRedoes
EndUndoRedoHistory
Fore
SplineSet
518 -22 m 0
 213 -22 76 303 76 672 c 0
 76 1011 183 1364 518 1364 c 0
 853 1364 959 1011 959 672 c 0
 959 380 874 116 688 18 c 1
 749 -105 837 -209 936 -297 c 1
 824 -412 l 1
 708 -300 606 -172 530 -22 c 1
 526 -22 522 -22 518 -22 c 0
518 1227 m 0
 341 1227 252 981 252 671 c 0
 252 361 342 117 518 117 c 0
 694 117 783 361 783 671 c 0
 783 981 695 1227 518 1227 c 0
EndSplineSet
EndChar

StartChar: R
Encoding: 82 82 17
Width: 1229
VWidth: 0
Flags: W
PickledData: "(dp1
S'com.typemytype.robofont.layerData'
p2
(dp3
s."
HStem: 627 125<610 660> 1210 132<567 786.626>
VStem: 856 163<823.131 1144.92>
LayerCount: 2
UndoRedoHistory
Layer: 0
Undoes
EndUndoes
Redoes
EndRedoes
EndUndoRedoHistory
Back
SplineSet
1004 984 m 4
 1004 1295 749 1342 439 1342 c 6
 167 1342 l 5
 167 0 l 5
 336 0 l 5
 336 596 l 5
 414 596 l 6
 463 596 590 598 590 598 c 5
 875 0 l 5
 1059 0 l 5
 754 641 l 5
 896 691 1004 786 1004 984 c 4
510 742 m 6
 336 742 l 5
 336 1210 l 5
 507 1210 l 6
 693 1210 835 1157 835 988 c 4
 835 799 700 742 510 742 c 6
EndSplineSet
UndoRedoHistory
Layer: 1
Undoes
EndUndoes
Redoes
EndRedoes
EndUndoRedoHistory
Fore
SplineSet
1019 984 m 0
 1019 1245 893 1342 569 1342 c 2
 167 1342 l 1
 167 0 l 1
 336 0 l 1
 336 627 l 1
 660 629 l 5
 875 0 l 1
 1051 0 l 1
 814 666 l 1
 921 707 1019 786 1019 984 c 0
610 752 m 2
 336 752 l 1
 336 1210 l 1
 567 1210 l 2
 793 1210 856 1157 856 988 c 0
 856 799 760 752 610 752 c 2
EndSplineSet
EndChar

StartChar: S
Encoding: 83 83 18
Width: 1229
VWidth: 0
Flags: HW
PickledData: "(dp1
S'com.typemytype.robofont.layerData'
p2
(dp3
s."
LayerCount: 2
UndoRedoHistory
Layer: 1
Undoes
EndUndoes
Redoes
EndRedoes
EndUndoRedoHistory
Fore
SplineSet
225 224 m 1
 299 175 399 117 539 117 c 0
 685 117 776 210 776 359 c 0
 776 540 625 574 464 646 c 0
 309 715 152 791 152 1011 c 0
 152 1242 336 1365 567 1365 c 0
 717 1365 834 1324 920 1256 c 1
 839 1147 l 1
 782 1191 686 1228 590 1228 c 0
 584 1228 576 1227 570 1227 c 0
 429 1220 338 1151 338 1015 c 0
 338 865 489 829 652 750 c 0
 804 676 966 593 966 374 c 0
 966 110 800 -22 547 -22 c 0
 384 -22 242 32 137 102 c 1
 225 224 l 1
EndSplineSet
EndChar

StartChar: T
Encoding: 84 84 19
Width: 1229
VWidth: 0
Flags: HW
LayerCount: 2
UndoRedoHistory
Layer: 1
Undoes
EndUndoes
Redoes
EndRedoes
EndUndoRedoHistory
Fore
SplineSet
1016 1342 m 1
 1016 1210 l 1
 634 1210 l 1
 634 0 l 1
 466 0 l 1
 466 1210 l 1
 85 1210 l 1
 85 1342 l 1
 1016 1342 l 1
EndSplineSet
EndChar

StartChar: U
Encoding: 85 85 20
Width: 1229
VWidth: 0
Flags: HW
LayerCount: 2
UndoRedoHistory
Layer: 1
Undoes
EndUndoes
Redoes
EndRedoes
EndUndoRedoHistory
Fore
SplineSet
553 -22 m 0
 244 -22 116 116 116 436 c 2
 116 1342 l 1
 284 1342 l 1
 284 441 l 2
 284 228 337 117 553 117 c 0
 769 117 821 228 821 441 c 2
 821 1342 l 1
 989 1342 l 1
 989 436 l 2
 989 116 862 -22 553 -22 c 0
EndSplineSet
EndChar

StartChar: V
Encoding: 86 86 21
Width: 1229
VWidth: 0
Flags: HW
LayerCount: 2
UndoRedoHistory
Layer: 1
Undoes
EndUndoes
Redoes
EndRedoes
EndUndoRedoHistory
Fore
SplineSet
870 1342 m 1
 1055 1342 l 1
 650 0 l 1
 454 0 l 1
 51 1342 l 1
 236 1342 l 1
 555 201 l 1
 870 1342 l 1
EndSplineSet
EndChar

StartChar: W
Encoding: 87 87 22
Width: 1229
VWidth: 0
Flags: HW
PickledData: "(dp1
S'com.typemytype.robofont.layerData'
p2
(dp3
S'b'
(dp4
S'name'
p5
S'W'
sS'lib'
p6
(dp7
sS'unicodes'
p8
(tsS'width'
p9
I1230
sS'contours'
p10
((dp11
S'points'
p12
((dp13
S'segmentType'
p14
S'line'
p15
sS'x'
F906
sS'smooth'
p16
I00
sS'y'
F210
s(dp17
g14
S'line'
p18
sS'x'
F972
sg16
I00
sS'y'
F1491
s(dp19
g14
S'line'
p20
sS'x'
F1157
sg16
I00
sS'y'
F1491
s(dp21
g14
S'line'
p22
sS'x'
F1040
sg16
I00
sS'y'
F0
s(dp23
g14
S'line'
p24
sS'x'
F811
sg16
I00
sS'y'
F0
s(dp25
g14
S'line'
p26
sS'x'
F627
sg16
I00
sS'y'
F659
s(dp27
g14
S'line'
p28
sS'x'
F431
sg16
I00
sS'y'
F0
s(dp29
g14
S'line'
p30
sS'x'
F205
sg16
I00
sS'y'
F0
s(dp31
g14
S'line'
p32
sS'x'
F67
sg16
I00
sS'y'
F1491
s(dp33
g14
S'line'
p34
sS'x'
F252
sg16
I00
sS'y'
F1491
s(dp35
g14
S'line'
p36
sS'x'
F356
sg16
I00
sS'y'
F213
s(dp37
g14
S'line'
p38
sS'x'
F543
sg16
I00
sS'y'
F880
s(dp39
g14
S'line'
p40
sS'x'
F716
sg16
I00
sS'y'
F880
stp41
stp42
sS'components'
p43
(tsS'anchors'
p44
(tsss."
LayerCount: 2
UndoRedoHistory
Layer: 1
Undoes
EndUndoes
Redoes
EndRedoes
EndUndoRedoHistory
Fore
SplineSet
782 172 m 1
 868 1342 l 1
 1026 1342 l 1
 904 0 l 1
 710 0 l 1
 554 629 l 1
 389 0 l 1
 201 0 l 1
 81 1342 l 1
 238 1342 l 1
 322 172 l 1
 461 760 l 1
 649 760 l 1
 782 172 l 1
EndSplineSet
EndChar

StartChar: X
Encoding: 88 88 23
Width: 1229
VWidth: 0
Flags: HW
PickledData: "(dp1
S'com.typemytype.robofont.layerData'
p2
(dp3
s."
LayerCount: 2
UndoRedoHistory
Layer: 1
Undoes
EndUndoes
Redoes
EndRedoes
EndUndoRedoHistory
Fore
SplineSet
162 1342 m 1
 362 1342 l 1
 568 803 l 1
 795 1342 l 1
 972 1342 l 1
 676 687 l 1
 980 0 l 1
 788 0 l 1
 554 564 l 1
 314 0 l 1
 126 0 l 1
 449 686 l 1
 162 1342 l 1
EndSplineSet
EndChar

StartChar: Y
Encoding: 89 89 24
Width: 1229
VWidth: 0
Flags: HW
LayerCount: 2
UndoRedoHistory
Layer: 1
Undoes
EndUndoes
Redoes
EndRedoes
EndUndoRedoHistory
Fore
SplineSet
632 0 m 5
 464 0 l 5
 464 534 l 5
 62 1342 l 5
 248 1342 l 5
 549 697 l 5
 854 1342 l 5
 1044 1342 l 5
 632 534 l 5
 632 0 l 5
EndSplineSet
EndChar

StartChar: Z
Encoding: 90 90 25
Width: 1229
VWidth: 0
Flags: HW
LayerCount: 2
UndoRedoHistory
Layer: 1
Undoes
EndUndoes
Redoes
EndRedoes
EndUndoRedoHistory
Fore
SplineSet
357 131 m 1
 926 131 l 1
 926 0 l 1
 158 0 l 1
 158 129 l 1
 723 1210 l 1
 190 1210 l 1
 190 1342 l 1
 934 1342 l 1
 934 1228 l 1
 357 131 l 1
EndSplineSet
EndChar

StartChar: a
Encoding: 97 97 26
Width: 1229
VWidth: 0
Flags: W
PickledData: "(dp1
S'com.typemytype.robofont.layerData'
p2
(dp3
s."
HStem: -21.9388 117.357<349.831 641.168> 0 21G<773.888 911> 462 107.04<403.492 750> 887.789 128.233<272.063 676.453>
VStem: 150 158<134.79 379.33> 750 161<179.308 463 568 815.385> 778 133<0 69.7251>
LayerCount: 2
UndoRedoHistory
Layer: 0
Undoes
EndUndoes
Redoes
EndRedoes
EndUndoRedoHistory
Back
SplineSet
436 -22 m 4xba
 275 -22 150 84 150 252 c 4
 150 497 358.137933198 571.014323591 620 569 c 6
 750 568 l 5
 750 680 l 6
 750 830 690 892 557 892 c 4
 463 892 298 851 248 829 c 5
 211 955 l 5
 298 985 411 1017 554 1017 c 4
 756 1017 911 931 911 712 c 6xbc
 911 0 l 5
 778 0 l 5x7a
 756 114 l 5
 682 38 552 -22 436 -22 c 4xba
750 220 m 5
 750 463 l 5
 617 462 l 6
 473.571460085 460.921589925 308 414 308 260 c 4
 308 161 368 97 467 97 c 4
 577 97 677 144 750 220 c 5
EndSplineSet
UndoRedoHistory
Layer: 1
Undoes
EndUndoes
Redoes
EndRedoes
EndUndoRedoHistory
Fore
SplineSet
150 252 m 0xba
 150 493.780865655 333.704101562 569.040039062 590.706054688 569.040039062 c 6
 750 568 l 1
 750 652 l 2
 750 824.330613729 664.985688464 887.789481747 525.383280074 887.789481747 c 0
 447.976315358 887.789481747 353.78624963 868.279063662 248 837 c 1
 211 955 l 1
 317.128498695 992.067442762 432.478990029 1016.02258503 538.3512291 1016.02258503 c 0
 742.25406571 1016.02258503 911 927.16774414 911 672 c 2xbc
 911 0 l 1
 778 0 l 1x7a
 756 107 l 1
 697.928250999 24.9604354288 577.631534622 -21.9387916259 459.411266873 -21.9387916259 c 0
 302.88560396 -21.9387916259 150 60.2765586615 150 252 c 0xba
750 224 m 1
 750 463 l 1
 598 462 l 6
 454.571289062 460.921875 308 414 308 260 c 0
 308 138.66893268 381.472803018 95.4180841998 469.610524291 95.4180841998 c 0
 576.428798376 95.4180841998 704.787143123 158.945634525 750 224 c 1
EndSplineSet
EndChar

StartChar: ampersand
Encoding: 38 38 27
Width: 1229
VWidth: 0
Flags: HW
LayerCount: 2
UndoRedoHistory
Layer: 1
Undoes
EndUndoes
Redoes
EndRedoes
EndUndoRedoHistory
Fore
SplineSet
311 793 m 1
 311 793 137 990 137 1148 c 0
 137 1340 287 1435 464 1435 c 0
 648 1435 802 1337 802 1143 c 0
 802 943 653 830 517 754 c 1
 822 337 l 1
 870 394 921 524 935 564 c 1
 1078 512 l 1
 1047 440 970 270 914 212 c 1
 1024 68 l 1
 907 -22 l 1
 814 109 l 1
 737 35 612 -22 478 -22 c 0
 226 -22 61 116 61 372 c 0
 61 577 180 706 311 793 c 1
499 129 m 0
 600 129 666 175 724 233 c 1
 404 671 l 1
 322 609 249 514 249 377 c 0
 249 219 343 129 499 129 c 0
620 1134 m 0
 620 1232 560 1300 477 1300 c 0
 385 1300 314 1241 314 1160 c 0
 314 1083 360 980 445 865 c 1
 543 920 620 992 620 1134 c 0
EndSplineSet
EndChar

StartChar: asciicircum
Encoding: 94 94 28
Width: 1229
VWidth: 0
Flags: HW
LayerCount: 2
UndoRedoHistory
Layer: 1
Undoes
EndUndoes
Redoes
EndRedoes
EndUndoRedoHistory
Fore
SplineSet
580 1399 m 1
 681 1399 l 1
 1166 537 l 1
 1012 537 l 1
 628 1231 l 1
 256 537 l 1
 100 537 l 1
 580 1399 l 1
EndSplineSet
EndChar

StartChar: asciitilde
Encoding: 126 126 29
Width: 1229
VWidth: 0
Flags: HW
LayerCount: 2
UndoRedoHistory
Layer: 1
Undoes
EndUndoes
Redoes
EndRedoes
EndUndoRedoHistory
Fore
SplineSet
81 760 m 1
 108 895 168 1036 338 1036 c 0
 533 1036 662 863 754 863 c 0
 830 863 847 969 860 1035 c 1
 1026 997 l 1
 994 847 964 702 773 702 c 0
 583 702 441 877 353 877 c 0
 277 877 255 774 245 706 c 1
 81 760 l 1
EndSplineSet
EndChar

StartChar: asterisk
Encoding: 42 42 30
Width: 1229
VWidth: 0
Flags: HW
LayerCount: 2
UndoRedoHistory
Layer: 1
Undoes
EndUndoes
Redoes
EndRedoes
EndUndoRedoHistory
Fore
SplineSet
941 337 m 1
 779 243 l 1
 551 606 l 1
 327 243 l 1
 163 337 l 1
 449 677 l 1
 50 809 l 1
 133 971 l 1
 495 779 l 1
 464 1197 l 1
 640 1197 l 1
 613 779 l 1
 972 971 l 1
 1056 809 l 1
 655 677 l 1
 941 337 l 1
EndSplineSet
EndChar

StartChar: at
Encoding: 64 64 31
Width: 1229
VWidth: 0
Flags: HW
LayerCount: 2
UndoRedoHistory
Layer: 1
Undoes
EndUndoes
Redoes
EndRedoes
EndUndoRedoHistory
Fore
SplineSet
829 471 m 0
 829 421 854 347 899 347 c 0
 995 347 1029 693 1029 814 c 0
 1029 1081 896 1296 652 1296 c 0
 323 1296 174 959 174 577 c 0
 174 254 330 1 623 1 c 0
 781 1 905 70 1004 156 c 1
 1047 105 l 1
 939 1 798 -79 613 -79 c 0
 228 -79 72 278 72 579 c 0
 72 1039 321 1364 635 1364 c 0
 971 1364 1113 1111 1113 819 c 0
 1113 599 1059 274 890 274 c 0
 796 274 750 354 740 454 c 1
 697 308 602 266 542 266 c 0
 389 266 339 425 339 585 c 0
 339 797 445 1017 602 1017 c 0
 684 1017 733 938 758 873 c 1
 777 987 l 1
 880 987 l 2
 879 987 829 658 829 471 c 0
732 671 m 0
 732 793 715 926 611 926 c 0
 480 926 444 676 444 558 c 0
 444 460 463 355 565 355 c 0
 682 355 732 563 732 671 c 0
EndSplineSet
EndChar

StartChar: b
Encoding: 98 98 32
Width: 1229
VWidth: 0
Flags: HW
HStem: -22 127<438 715> 0 19G<154 304> 891 126<446 720> 1390 18G<154 318>
VStem: 154 164<251 756 851 1390> 154 148<0 108> 838 165<256 755>
LayerCount: 2
UndoRedoHistory
Layer: 1
Undoes
EndUndoes
Redoes
EndRedoes
EndUndoRedoHistory
Fore
SplineSet
318 851 m 1x7a
 373 941 455 1017 613 1017 c 0
 891 1017 1003 791 1003 511 c 0
 1003 223 890 -22 603 -22 c 0
 451 -22 387 44 318 135 c 1xba
 302 0 l 5
 154 0 l 1x76
 154 1390 l 1
 318 1408 l 1
 318 851 l 1x7a
318 500 m 0
 318 288 366 104 583 104 c 0
 790 104 838 307 838 500 c 0
 838 702 797 891 583 891 c 0
 359 891 318 718 318 500 c 0
EndSplineSet
EndChar

StartChar: backslash
Encoding: 92 92 33
Width: 1229
VWidth: 0
Flags: HW
LayerCount: 2
UndoRedoHistory
Layer: 1
Undoes
EndUndoes
Redoes
EndRedoes
EndUndoRedoHistory
Fore
SplineSet
974 -43 m 1
 812 -43 l 1
 174 1585 l 1
 339 1585 l 1
 974 -43 l 1
EndSplineSet
EndChar

StartChar: bar
Encoding: 124 124 34
Width: 1229
VWidth: 0
Flags: HW
LayerCount: 2
UndoRedoHistory
Layer: 1
Undoes
EndUndoes
Redoes
EndRedoes
EndUndoRedoHistory
Fore
SplineSet
477 -397 m 1
 477 1426 l 1
 622 1426 l 1
 622 -397 l 1
 477 -397 l 1
EndSplineSet
EndChar

StartChar: braceleft
Encoding: 123 123 35
Width: 1229
VWidth: 0
Flags: HW
LayerCount: 2
UndoRedoHistory
Layer: 1
Undoes
EndUndoes
Redoes
EndRedoes
EndUndoRedoHistory
Fore
SplineSet
463 410 m 2
 463 558 347 629 202 638 c 1
 202 760 l 1
 347 769 463 839 463 987 c 2
 463 1197 l 2
 463 1428 547 1535 783 1535 c 2
 786 1535 l 1
 991 1534 l 1
 991 1412 l 1
 786 1412 l 2
 669 1412 662 1314 662 1197 c 2
 662 980 l 2
 662 801 575 750 441 698 c 1
 575 646 662 597 662 418 c 2
 662 201 l 2
 662 84 669 -15 786 -15 c 2
 991 -15 l 1
 991 -137 l 1
 786 -138 l 1
 783 -138 l 2
 547 -138 463 -30 463 201 c 2
 463 410 l 2
EndSplineSet
EndChar

StartChar: braceright
Encoding: 125 125 36
Width: 1229
VWidth: 0
Flags: HW
LayerCount: 2
UndoRedoHistory
Layer: 1
Undoes
EndUndoes
Redoes
EndRedoes
EndUndoRedoHistory
Fore
SplineSet
711 987 m 2
 711 839 826 769 971 760 c 1
 971 638 l 1
 826 629 711 558 711 410 c 2
 711 201 l 2
 711 -30 626 -138 391 -138 c 2
 388 -138 l 1
 182 -137 l 1
 182 -15 l 1
 388 -15 l 2
 505 -15 511 84 511 201 c 2
 511 418 l 2
 511 597 598 646 732 698 c 1
 598 750 511 801 511 980 c 2
 511 1197 l 2
 511 1314 505 1412 388 1412 c 2
 182 1412 l 1
 182 1534 l 1
 388 1535 l 1
 391 1535 l 2
 626 1535 711 1428 711 1197 c 2
 711 987 l 2
EndSplineSet
EndChar

StartChar: bracketleft
Encoding: 91 91 37
Width: 1229
VWidth: 0
Flags: HW
LayerCount: 2
UndoRedoHistory
Layer: 1
Undoes
EndUndoes
Redoes
EndRedoes
EndUndoRedoHistory
Fore
SplineSet
356 -118 m 1
 356 1552 l 1
 357 1555 357 1556 360 1557 c 1
 823 1557 l 1
 826 1556 826 1555 827 1552 c 1
 827 1434 l 1
 826 1431 826 1430 823 1429 c 1
 526 1429 l 1
 526 5 l 1
 824 5 l 1
 827 4 827 4 828 1 c 1
 828 -118 l 1
 827 -121 827 -121 824 -122 c 1
 360 -122 l 1
 357 -121 357 -121 356 -118 c 1
EndSplineSet
EndChar

StartChar: bracketright
Encoding: 93 93 38
Width: 1229
VWidth: 0
Flags: HW
LayerCount: 2
UndoRedoHistory
Layer: 1
Undoes
EndUndoes
Redoes
EndRedoes
EndUndoRedoHistory
Fore
SplineSet
698 -118 m 1
 697 -121 696 -121 693 -122 c 1
 230 -122 l 1
 227 -121 226 -121 225 -118 c 1
 225 1 l 1
 226 4 227 4 230 5 c 1
 527 5 l 1
 527 1429 l 1
 230 1429 l 1
 227 1430 227 1431 226 1434 c 1
 226 1552 l 1
 227 1555 227 1556 230 1557 c 1
 693 1557 l 1
 696 1556 697 1555 698 1552 c 1
 698 -118 l 1
EndSplineSet
EndChar

StartChar: c
Encoding: 99 99 39
Width: 1229
VWidth: 0
Flags: HW
PickledData: "(dp1
S'com.typemytype.robofont.layerData'
p2
(dp3
s."
LayerCount: 2
UndoRedoHistory
Layer: 1
Undoes
EndUndoes
Redoes
EndRedoes
EndUndoRedoHistory
Fore
SplineSet
932 65 m 5
 867 5 760 -22 662 -22 c 4
 355 -22 184 225 184 500 c 4
 184 773 365 1017 659 1017 c 4
 774 1017 870 979 925 932 c 5
 857 832 l 5
 815 861 757 891 662 891 c 4
 475 891 350 725 350 496 c 4
 350 270 470 104 669 104 c 4
 758 104 811 127 866 166 c 5
 932 65 l 5
EndSplineSet
EndChar

StartChar: colon
Encoding: 58 58 40
Width: 1229
VWidth: 0
Flags: HW
PickledData: "(dp1
S'com.typemytype.robofont.layerData'
p2
(dp3
s."
LayerCount: 2
UndoRedoHistory
Layer: 1
Undoes
EndUndoes
Redoes
EndRedoes
EndUndoRedoHistory
Fore
SplineSet
691 756 m 1
 443 756 l 1
 443 1008 l 1
 691 1008 l 1
 691 756 l 1
691 140 m 1
 443 140 l 1
 443 392 l 1
 691 392 l 1
 691 140 l 1
EndSplineSet
EndChar

StartChar: comma
Encoding: 44 44 41
Width: 1229
VWidth: 0
Flags: HW
LayerCount: 2
UndoRedoHistory
Layer: 1
Undoes
EndUndoes
Redoes
EndRedoes
EndUndoRedoHistory
Fore
SplineSet
413 -289 m 5
 459 257 l 5
 673 257 l 1
 506 -289 l 1
 413 -289 l 5
EndSplineSet
EndChar

StartChar: d
Encoding: 100 100 42
Width: 1229
VWidth: 0
Flags: HW
HStem: -22 126<395 659> 0 19G<803 954> 891 126<390 676> 1390 18G<790 954>
VStem: 109 165<249 749> 790 164<253 756 851 1390> 805 149<0 137>
LayerCount: 2
UndoRedoHistory
Layer: 1
Undoes
EndUndoes
Redoes
EndRedoes
EndUndoRedoHistory
Fore
SplineSet
790 851 m 1xbc
 790 1390 l 1xbc
 954 1408 l 1
 954 0 l 1
 805 0 l 5x7a
 790 153 l 1
 748 80 660 -22 508 -22 c 0
 221 -22 109 214 109 502 c 0
 109 782 230 1017 508 1017 c 0
 666 1017 753 941 790 851 c 1xbc
790 500 m 0
 790 718 751 891 527 891 c 0
 313 891 274 692 274 490 c 0
 274 297 320 104 527 104 c 0
 744 104 790 312 790 500 c 0
EndSplineSet
EndChar

StartChar: dollar
Encoding: 36 36 43
Width: 1229
VWidth: 0
Flags: HW
LayerCount: 2
UndoRedoHistory
Layer: 1
Undoes
EndUndoes
Redoes
EndRedoes
EndUndoRedoHistory
Fore
SplineSet
599 581 m 1
 599 124 l 1
 703 149 759 239 759 364 c 0
 759 478 685 538 599 581 c 1
516 797 m 1
 516 1225 l 1
 396 1211 321 1132 321 1009 c 0
 321 894 418 837 516 797 c 1
516 618 m 1
 337 689 135 761 135 1011 c 0
 135 1233 298 1354 516 1364 c 1
 516 1577 l 1
 599 1577 l 1
 599 1364 l 1
 723 1357 822 1323 897 1265 c 1
 834 1136 l 1
 775 1183 693 1216 599 1225 c 1
 599 765 l 1
 768 698 949 605 949 374 c 0
 949 136 812 3 599 -19 c 1
 599 -196 l 1
 516 -196 l 1
 516 -22 l 1
 359 -20 230 17 127 85 c 1
 191 235 l 1
 271 169 384 121 516 117 c 1
 516 618 l 1
EndSplineSet
EndChar

StartChar: e
Encoding: 101 101 44
Width: 1229
VWidth: 0
Flags: HW
PickledData: "(dp1
S'com.typemytype.robofont.layerData'
p2
(dp3
s."
HStem: -22 126<494 810> 468 120<352 815> 891 127<470 719>
VStem: 181 166<281 468 588 733>
LayerCount: 2
UndoRedoHistory
Layer: 1
Undoes
EndUndoes
Redoes
EndRedoes
EndUndoRedoHistory
Fore
SplineSet
815 588 m 5
 806 739 761 891 603 891 c 4
 425 891 370 748 352 588 c 5
 815 588 l 5
181 500 m 4
 181 782 327 1018 581 1018 c 4
 849 1018 972 792 972 523 c 6
 972 468 l 5
 346 468 l 5
 354 273 439 104 638 104 c 4
 743 104 813 135 880 191 c 5
 952 100 l 5
 878 31 787 -22 633 -22 c 4
 335 -22 181 202 181 500 c 4
EndSplineSet
EndChar

StartChar: eight
Encoding: 56 56 45
Width: 1229
VWidth: 0
Flags: HW
LayerCount: 2
UndoRedoHistory
Layer: 1
Undoes
EndUndoes
Redoes
EndRedoes
EndUndoRedoHistory
Fore
SplineSet
356 340 m 0
 356 201 429 117 563 117 c 0
 698 117 771 200 771 340 c 0
 771 498 683 574 563 610 c 1
 444 574 356 498 356 340 c 0
963 365 m 0
 963 117 809 -22 563 -22 c 0
 317 -22 163 117 163 365 c 0
 163 550 298 657 442 700 c 1
 301 750 190 848 190 1028 c 0
 190 1242 352 1364 563 1364 c 0
 774 1364 938 1242 938 1028 c 0
 938 849 827 750 686 700 c 1
 830 657 963 549 963 365 c 0
764 1035 m 0
 764 1153 678 1227 563 1227 c 0
 449 1227 364 1152 364 1035 c 0
 364 884 447 819 563 787 c 1
 679 819 764 884 764 1035 c 0
EndSplineSet
EndChar

StartChar: equal
Encoding: 61 61 46
Width: 1229
VWidth: 0
Flags: HW
PickledData: "(dp1
S'com.typemytype.robofont.layerData'
p2
(dp3
s."
LayerCount: 2
UndoRedoHistory
Layer: 1
Undoes
EndUndoes
Redoes
EndRedoes
EndUndoRedoHistory
Fore
SplineSet
985 808 m 1
 122 808 l 1
 122 943 l 1
 985 943 l 1
 985 808 l 1
986 411 m 1
 122 411 l 1
 122 544 l 1
 986 544 l 1
 986 411 l 1
EndSplineSet
EndChar

StartChar: exclam
Encoding: 33 33 47
Width: 1229
VWidth: 0
Flags: HW
LayerCount: 2
UndoRedoHistory
Layer: 1
Undoes
EndUndoes
Redoes
EndRedoes
EndUndoRedoHistory
Fore
SplineSet
525 440 m 1
 445 1343 l 1
 661 1343 l 1
 581 440 l 1
 525 440 l 1
661 0 m 1
 445 0 l 1
 445 248 l 1
 661 248 l 1
 661 0 l 1
EndSplineSet
EndChar

StartChar: f
Encoding: 102 102 48
Width: 1229
VWidth: 0
Flags: HW
LayerCount: 2
UndoRedoHistory
Layer: 1
Undoes
EndUndoes
Redoes
EndRedoes
EndUndoRedoHistory
Fore
SplineSet
608 0 m 1
 444 0 l 1
 444 861 l 1
 185 861 l 1
 185 987 l 1
 444 987 l 1
 444 1289 468 1426 850 1426 c 2
 945 1426 l 1
 936 1300 l 1
 846 1300 l 2
 676 1300 608 1277 608 1107 c 2
 608 987 l 1
 945 987 l 1
 945 861 l 1
 608 861 l 1
 608 0 l 1
EndSplineSet
EndChar

StartChar: five
Encoding: 53 53 49
Width: 1229
VWidth: 0
Flags: HW
LayerCount: 2
UndoRedoHistory
Layer: 1
Undoes
EndUndoes
Redoes
EndRedoes
EndUndoRedoHistory
Fore
SplineSet
236 230 m 1
 343 158 445 122 531 122 c 0
 681 122 782 231 782 445 c 1
 782 590 744 728 589 728 c 0
 480 728 391 647 391 647 c 1
 238 674 l 1
 238 1343 l 1
 888 1343 l 1
 888 1211 l 1
 407 1211 l 1
 407 810 l 1
 407 810 497 878 607 878 c 0
 869 878 963 666 963 446 c 0
 963 163 768 -18 523 -18 c 0
 416 -18 300 16 187 91 c 1
 236 230 l 1
EndSplineSet
EndChar

StartChar: four
Encoding: 52 52 50
Width: 1229
VWidth: 0
Flags: HW
LayerCount: 2
UndoRedoHistory
Layer: 1
Undoes
EndUndoes
Redoes
EndRedoes
EndUndoRedoHistory
Fore
SplineSet
807 0 m 1
 639 0 l 1
 639 358 l 1
 55 358 l 1
 55 487 l 1
 600 1343 l 1
 807 1343 l 1
 807 484 l 1
 1025 484 l 1
 1025 358 l 1
 807 358 l 1
 807 0 l 1
639 1154 m 1
 225 484 l 1
 639 484 l 1
 639 1154 l 1
EndSplineSet
EndChar

StartChar: g
Encoding: 103 103 51
Width: 1229
VWidth: 0
Flags: W
PickledData: "(dp1
S'com.typemytype.robofont.layerData'
p2
(dp3
s."
HStem: -439 125<272.872 655.34> 0 146<394.125 676.269> 891 126<388.332 686.493>
VStem: 103 165<286.883 747.119> 812 151<-156.296 189 303.563 729.24 853 987>
LayerCount: 2
UndoRedoHistory
Layer: 0
Undoes
EndUndoes
Redoes
EndRedoes
EndUndoRedoHistory
Back
SplineSet
410.200195312 -442.599609375 m 4
 800.599609375 -442.599609375 962.799804688 -216.599609375 962.799804688 98.2001953125 c 6
 962.799804688 998 l 5
 807.799804688 998 l 5
 797.465820312 858.415039062 l 5
 737.6015625 960.395507812 632.23046875 1018.79980469 488.400390625 1018.79980469 c 4
 185.599609375 1018.79980469 32 780.200195312 32 496.200195312 c 4
 32 249 179 0 476.799804688 0 c 4
 623.876953125 0 734.376953125 61.041015625 795.200195312 161.729492188 c 5
 795.200195312 57.400390625 l 6
 795.200195312 -176.599609375 680 -309 402.200195312 -309 c 4
 389.400390625 -309 364.599609375 -309.051757812 190 -302.799804688 c 5
 190 -436.400390625 l 5
 387.999023438 -442.6640625 399.599609375 -442.599609375 410.200195312 -442.599609375 c 4
498 130.200195312 m 4
 279 130.200195312 202.799804688 328.799804688 202.799804688 504.400390625 c 4
 202.799804688 692.599609375 284 888 503.400390625 888 c 4
 718.599609375 888 796.400390625 742 796.400390625 543.200195312 c 6
 796.400390625 467.200195312 l 6
 795.599609375 289.400390625 714.200195312 130.200195312 498 130.200195312 c 4
EndSplineSet
UndoRedoHistory
Layer: 1
Undoes
EndUndoes
Redoes
EndRedoes
EndUndoRedoHistory
Fore
SplineSet
539 891 m 4
 327 891 268 709 268 495 c 0
 268 324 342 146 532 146 c 4
 743 146 799 324 799 500 c 0
 799 705 751 891 539 891 c 4
812 189 m 1
 774 93 656 0 516 0 c 4
 268 0 103 228 103 500 c 0
 103 792 239 1017 521 1017 c 4
 651 1017 737 955 799 853 c 1
 805 987 l 1
 963 987 l 1
 963 55 l 2
 963 -291 791 -439 478 -439 c 0
 412 -439 311 -433 271 -424 c 1
 271 -302 l 1
 309 -311 407 -314 466 -314 c 0
 626 -314 812 -244 812 26 c 2
 812 189 l 1
EndSplineSet
EndChar

StartChar: grave
Encoding: 96 96 52
Width: 1229
VWidth: 0
Flags: HW
LayerCount: 2
UndoRedoHistory
Layer: 1
Undoes
EndUndoes
Redoes
EndRedoes
EndUndoRedoHistory
Fore
SplineSet
589 1534 m 1
 843 1141 l 1
 718 1141 l 1
 376 1534 l 1
 589 1534 l 1
EndSplineSet
EndChar

StartChar: greater
Encoding: 62 62 53
Width: 1229
VWidth: 0
Flags: HW
LayerCount: 2
UndoRedoHistory
Layer: 1
Undoes
EndUndoes
Redoes
EndRedoes
EndUndoRedoHistory
Fore
SplineSet
142 1040 m 1
 142 1189 l 1
 1060 715 l 1
 1060 629 l 1
 137 192 l 1
 137 342 l 1
 840 678 l 1
 142 1040 l 1
EndSplineSet
EndChar

StartChar: h
Encoding: 104 104 54
Width: 1229
VWidth: 0
Flags: HW
LayerCount: 2
UndoRedoHistory
Layer: 1
Undoes
EndUndoes
Redoes
EndRedoes
EndUndoRedoHistory
Fore
SplineSet
941 596 m 6
 941 0 l 5
 778 0 l 5
 778 575 l 6
 778 744 752 891 587 891 c 4
 433 891 348 770 348 671 c 6
 348 0 l 5
 184 0 l 5
 184 1390 l 5
 348 1408 l 5
 348 868 l 5
 396 930 472 1017 638 1017 c 4
 863 1017 941 844 941 596 c 6
EndSplineSet
EndChar

StartChar: hyphen
Encoding: 45 45 55
Width: 1229
VWidth: 0
Flags: HW
PickledData: "(dp1
S'com.typemytype.robofont.layerData'
p2
(dp3
s."
LayerCount: 2
UndoRedoHistory
Layer: 1
Undoes
EndUndoes
Redoes
EndRedoes
EndUndoRedoHistory
Fore
SplineSet
884 635 m 1
 884 496 l 1
 222 496 l 1
 222 635 l 1
 884 635 l 1
EndSplineSet
EndChar

StartChar: i
Encoding: 105 105 56
Width: 1229
VWidth: 0
Flags: HW
HStem: 0 126<208 521 685 968> 861 126<239 521> 1166 253<513 693>
VStem: 494 218<1188 1396> 521 164<126 861>
LayerCount: 2
UndoRedoHistory
Layer: 1
Undoes
EndUndoes
Redoes
EndRedoes
EndUndoRedoHistory
Fore
SplineSet
239 861 m 5xe8
 239 987 l 5
 685 987 l 5
 685 126 l 5
 968 126 l 5
 968 0 l 5
 208 0 l 5
 208 126 l 5
 521 126 l 5
 521 861 l 5
 239 861 l 5xe8
494 1247 m 6xf0
 494 1336 l 6
 494 1381 558 1418 603 1418 c 4
 648 1418 712 1381 712 1336 c 6
 712 1247 l 6
 712 1202 648 1166 603 1166 c 4
 558 1166 494 1202 494 1247 c 6xf0
EndSplineSet
EndChar

StartChar: j
Encoding: 106 106 57
Width: 1229
VWidth: 0
Flags: HW
PickledData: "(dp1
S'com.typemytype.robofont.layerData'
p2
(dp3
s."
LayerCount: 2
UndoRedoHistory
Layer: 1
Undoes
EndUndoes
Redoes
EndRedoes
EndUndoRedoHistory
Fore
SplineSet
575 1247 m 2
 575 1336 l 2
 575 1381 639 1418 684 1418 c 0
 729 1418 793 1381 793 1336 c 2
 793 1247 l 2
 793 1202 729 1166 684 1166 c 0
 639 1166 575 1202 575 1247 c 2
414 -198 m 2
 581 -198 604 -158 604 64 c 2
 604 861 l 1
 252 861 l 1
 252 987 l 1
 768 987 l 1
 768 114 l 2
 768 -179 753 -324 415 -324 c 2
 178 -324 l 1
 178 -198 l 1
 414 -198 l 2
EndSplineSet
EndChar

StartChar: k
Encoding: 107 107 58
Width: 1229
VWidth: 0
Flags: HW
PickledData: "(dp1
S'com.typemytype.robofont.layerData'
p2
(dp3
s."
LayerCount: 2
UndoRedoHistory
Layer: 1
Undoes
EndUndoes
Redoes
EndRedoes
EndUndoRedoHistory
Fore
SplineSet
353 558 m 1
 778 987 l 1
 986 987 l 1
 561 556 l 1
 1046 0 l 1
 851 0 l 1
 441 489 l 1
 353 411 l 1
 353 0 l 1
 189 0 l 1
 189 1390 l 1
 353 1408 l 1
 353 558 l 1
EndSplineSet
EndChar

StartChar: l
Encoding: 108 108 59
Width: 1229
VWidth: 0
Flags: HW
PickledData: "(dp1
S'com.typemytype.robofont.layerData'
p2
(dp3
s."
LayerCount: 2
UndoRedoHistory
Layer: 1
Undoes
EndUndoes
Redoes
EndRedoes
EndUndoRedoHistory
Fore
SplineSet
928 0 m 1
 797 0 l 2
 461 0 415 96 411 390 c 1
 411 1282 l 1
 116 1282 l 1
 116 1408 l 1
 575 1408 l 1
 575 398 l 2
 575 176 592 126 791 126 c 2
 928 126 l 1
 928 0 l 1
EndSplineSet
EndChar

StartChar: less
Encoding: 60 60 60
Width: 1229
VWidth: 0
Flags: HW
LayerCount: 2
UndoRedoHistory
Layer: 1
Undoes
EndUndoes
Redoes
EndRedoes
EndUndoRedoHistory
Fore
SplineSet
1057 330 m 1
 1057 171 l 1
 137 620 l 1
 137 726 l 1
 1060 1189 l 1
 1060 1028 l 1
 356 674 l 1
 1057 330 l 1
EndSplineSet
EndChar

StartChar: m
Encoding: 109 109 61
Width: 1229
VWidth: 0
Flags: HW
LayerCount: 2
UndoRedoHistory
Layer: 1
Undoes
EndUndoes
Redoes
EndRedoes
EndUndoRedoHistory
Fore
SplineSet
771 891 m 0
 632 891 633 721 633 612 c 2
 633 0 l 1
 495 0 l 1
 495 602 l 2
 495 722 493 891 381 891 c 0
 280 891 240 753 240 649 c 2
 240 0 l 1
 90 0 l 1
 90 987 l 1
 220 987 l 1
 230 857 l 1
 259 933 317 1017 416 1017 c 0
 510 1017 576 958 601 864 c 1
 640 963 702 1017 809 1017 c 0
 996 1017 1026 823 1026 633 c 2
 1026 0 l 1
 876 0 l 1
 876 614 l 2
 876 742 875 891 771 891 c 0
EndSplineSet
EndChar

StartChar: n
Encoding: 110 110 62
Width: 1229
VWidth: 0
Flags: W
HStem: 0 21G<176 340 785 949> 891 126<443.701 723.312>
VStem: 176 164<0 800.082 880 987> 785 164<0 828.809>
LayerCount: 2
UndoRedoHistory
Layer: 1
Undoes
EndUndoes
Redoes
EndRedoes
EndUndoRedoHistory
Fore
SplineSet
642 1017 m 0
 870 1017 949 859 949 628 c 2
 949 0 l 1
 785 0 l 1
 785 202 785 406 785 608 c 0
 785 758 780 891 584 891 c 0
 460 891 340 808 340 668 c 2
 340 0 l 1
 176 0 l 1
 176 987 l 1
 327 987 l 1
 336 880 l 1
 393 959 492 1017 642 1017 c 0
EndSplineSet
EndChar

StartChar: nine
Encoding: 57 57 63
Width: 1229
VWidth: 0
Flags: HW
LayerCount: 2
UndoRedoHistory
Layer: 1
Undoes
EndUndoes
Redoes
EndRedoes
EndUndoRedoHistory
Fore
SplineSet
598 1365 m 0
 874 1365 1038 1200 1038 926 c 0
 1038 754 971 629 890 525 c 2
 485 0 l 1
 267 0 l 1
 748 602 l 1
 702 573 625 549 554 549 c 0
 318 549 174 711 174 947 c 0
 174 1217 378 1365 598 1365 c 0
858 958 m 0
 858 1115 758 1227 600 1227 c 0
 447 1227 345 1109 345 950 c 0
 345 794 434 675 590 675 c 0
 768 675 858 798 858 958 c 0
EndSplineSet
EndChar

StartChar: numbersign
Encoding: 35 35 64
Width: 1229
VWidth: 0
Flags: HW
LayerCount: 2
UndoRedoHistory
Layer: 1
Undoes
EndUndoes
Redoes
EndRedoes
EndUndoRedoHistory
Fore
SplineSet
1017 897 m 1
 851 897 l 1
 774 516 l 1
 943 516 l 1
 929 393 l 1
 754 393 l 1
 672 -22 l 1
 526 -22 l 1
 605 393 l 1
 412 393 l 1
 331 -22 l 1
 184 -22 l 1
 269 393 l 1
 74 393 l 1
 86 516 l 1
 292 516 l 1
 364 896 l 1
 162 896 l 1
 174 1017 l 1
 387 1017 l 1
 464 1411 l 1
 611 1411 l 1
 534 1017 l 1
 730 1017 l 1
 806 1411 l 1
 952 1411 l 1
 874 1017 l 1
 1032 1017 l 1
 1017 897 l 1
510 897 m 1
 435 516 l 1
 631 516 l 1
 707 897 l 1
 510 897 l 1
EndSplineSet
EndChar

StartChar: o
Encoding: 111 111 65
Width: 1229
VWidth: 0
Flags: W
PickledData: "(dp1
S'com.typemytype.robofont.layerData'
p2
(dp3
s."
HStem: -22 126<412.957 692.59> 891 126<412.07 692.188>
VStem: 124 166<248.566 743.565> 818 164<250.997 743.007>
LayerCount: 2
UndoRedoHistory
Layer: 1
Undoes
EndUndoes
Redoes
EndRedoes
EndUndoRedoHistory
Fore
SplineSet
551 1017 m 0
 847 1017 982 794 982 502 c 0
 982 189 819 -22 551 -22 c 0
 260 -22 124 209 124 496 c 0
 124 807 285 1017 551 1017 c 0
290 495 m 0
 290 302 346 104 551 104 c 0
 763 104 818 302 818 498 c 0
 818 693 763 891 551 891 c 0
 346 891 290 688 290 495 c 0
EndSplineSet
EndChar

StartChar: one
Encoding: 49 49 66
Width: 1229
VWidth: 0
Flags: HW
HStem: 0 131<214 517 685 968> 995 19G<213 265> 1325 18G<467 685>
VStem: 517 168<131 1161>
LayerCount: 2
UndoRedoHistory
Layer: 1
Undoes
EndUndoes
Redoes
EndRedoes
EndUndoRedoHistory
Fore
SplineSet
968 0 m 1
 214 0 l 1
 214 131 l 1
 517 131 l 1
 517 1161 l 1
 424 1109 317 1035 213 995 c 1
 213 1158 l 1
 331 1207 418 1274 516 1343 c 1
 685 1343 l 1
 685 131 l 1
 968 131 l 1
 968 0 l 1
EndSplineSet
EndChar

StartChar: p
Encoding: 112 112 67
Width: 1229
VWidth: 0
Flags: HW
PickledData: "(dp1
S'com.typemytype.robofont.layerData'
p2
(dp3
s."
HStem: -397 19G<143 307> -22 126<447 712> 891 126<433 713> 969 18G<143 294>
VStem: 143 162<258 742 964 987> 832 165<250 751>
LayerCount: 2
UndoRedoHistory
Layer: 1
Undoes
EndUndoes
Redoes
EndRedoes
EndUndoRedoHistory
Fore
SplineSet
603 -22 m 0xec
 446 -22 353 75 307 158 c 1
 307 -379 l 1
 143 -397 l 1
 143 987 l 1
 292 987 l 5xdc
 307 851 l 1
 359 941 453 1017 593 1017 c 0
 871 1017 996 791 996 511 c 0
 996 226 878 -22 603 -22 c 0xec
305 500 m 0
 305 288 365 104 582 104 c 0
 788 104 832 307 832 500 c 0
 832 702 790 891 580 891 c 0xec
 362 891 305 718 305 500 c 0
EndSplineSet
EndChar

StartChar: parenleft
Encoding: 40 40 68
Width: 1229
VWidth: 0
Flags: HW
LayerCount: 2
UndoRedoHistory
Layer: 1
Undoes
EndUndoes
Redoes
EndRedoes
EndUndoRedoHistory
Fore
SplineSet
345 695 m 0
 345 1041 458 1315 616 1534 c 1
 775 1534 l 1
 604 1264 519 987 519 703 c 0
 519 360 629 99 777 -137 c 1
 619 -137 l 1
 457 79 345 349 345 695 c 0
EndSplineSet
EndChar

StartChar: parenright
Encoding: 41 41 69
Width: 1229
VWidth: 0
Flags: HW
LayerCount: 2
UndoRedoHistory
Layer: 1
Undoes
EndUndoes
Redoes
EndRedoes
EndUndoRedoHistory
Fore
SplineSet
734 695 m 0
 734 349 621 79 459 -137 c 1
 301 -137 l 1
 449 99 558 360 558 703 c 0
 558 987 473 1264 302 1534 c 1
 462 1534 l 1
 620 1315 734 1041 734 695 c 0
EndSplineSet
EndChar

StartChar: percent
Encoding: 37 37 70
Width: 1229
VWidth: 0
Flags: HW
LayerCount: 2
UndoRedoHistory
Layer: 1
Undoes
EndUndoes
Redoes
EndRedoes
EndUndoRedoHistory
Fore
SplineSet
814 493 m 0
 711 493 690 392 690 287 c 0
 690 181 709 86 813 86 c 0
 913 86 935 188 935 291 c 0
 935 396 915 493 814 493 c 0
816 596 m 0
 986 596 1047 465 1047 291 c 0
 1047 103 961 -17 809 -17 c 0
 639 -17 576 116 576 287 c 0
 576 462 644 596 816 596 c 0
300 1414 m 0
 470 1414 530 1283 530 1109 c 0
 530 921 444 801 292 801 c 0
 122 801 59 934 59 1105 c 0
 59 1280 128 1414 300 1414 c 0
1012 916 m 1
 181 418 l 1
 126 510 l 1
 958 1012 l 1
 1012 916 l 1
297 1311 m 0
 194 1311 174 1210 174 1105 c 0
 174 999 192 904 296 904 c 0
 396 904 418 1006 418 1109 c 0
 418 1214 398 1311 297 1311 c 0
EndSplineSet
EndChar

StartChar: period
Encoding: 46 46 71
Width: 1229
VWidth: 0
Flags: HW
LayerCount: 2
UndoRedoHistory
Layer: 1
Undoes
EndUndoes
Redoes
EndRedoes
EndUndoRedoHistory
Fore
SplineSet
688 0 m 1
 418 0 l 1
 418 271 l 1
 688 271 l 1
 688 0 l 1
EndSplineSet
EndChar

StartChar: plus
Encoding: 43 43 72
Width: 1229
VWidth: 0
Flags: HW
LayerCount: 2
UndoRedoHistory
Layer: 1
Undoes
EndUndoes
Redoes
EndRedoes
EndUndoRedoHistory
Fore
SplineSet
482 1157 m 1
 627 1157 l 1
 627 744 l 1
 1075 744 l 1
 1075 608 l 1
 626 608 l 1
 626 195 l 1
 478 195 l 1
 478 608 l 1
 32 608 l 1
 32 744 l 1
 482 744 l 1
 482 1157 l 1
EndSplineSet
EndChar

StartChar: q
Encoding: 113 113 73
Width: 1229
VWidth: 0
Flags: HW
PickledData: "(dp1
S'com.typemytype.robofont.layerData'
p2
(dp3
s."
LayerCount: 2
UndoRedoHistory
Layer: 1
Undoes
EndUndoes
Redoes
EndRedoes
EndUndoRedoHistory
Fore
SplineSet
816 828 m 1
 816 987 l 1
 980 987 l 1
 980 -379 l 1
 818 -397 l 1
 818 162 l 1
 768 64 660 -22 508 -22 c 0
 221 -22 95 223 95 511 c 0
 95 791 230 1017 508 1017 c 0
 666 1017 754 936 816 828 c 1
816 500 m 0
 816 718 751 891 527 891 c 0
 313 891 260 702 260 500 c 0
 260 307 320 104 527 104 c 0
 744 104 816 288 816 500 c 0
EndSplineSet
EndChar

StartChar: question
Encoding: 63 63 74
Width: 1229
VWidth: 0
Flags: HW
LayerCount: 2
UndoRedoHistory
Layer: 1
Undoes
EndUndoes
Redoes
EndRedoes
EndUndoRedoHistory
Fore
SplineSet
863 1108 m 0
 863 833 471 725 471 500 c 0
 471 450 475 402 483 360 c 1
 324 360 l 1
 318 410 314 461 314 512 c 1
 313 513 l 1
 313 813 696 837 696 1112 c 0
 696 1265 554 1306 402 1306 c 0
 303 1306 219 1276 151 1239 c 1
 151 1382 l 1
 221 1415 304 1445 402 1445 c 0
 652 1445 863 1358 863 1108 c 0
295 -11 m 1
 295 194 l 1
 513 194 l 1
 513 -11 l 1
 295 -11 l 1
EndSplineSet
EndChar

StartChar: quotedbl
Encoding: 34 34 75
Width: 1229
VWidth: 0
Flags: HW
PickledData: "(dp1
S'com.typemytype.robofont.layerData'
p2
(dp3
s."
LayerCount: 2
UndoRedoHistory
Layer: 1
Undoes
EndUndoes
Redoes
EndRedoes
EndUndoRedoHistory
Fore
SplineSet
464 1426 m 1
 418 783 l 1
 309 783 l 1
 264 1426 l 1
 464 1426 l 1
842 1426 m 1
 796 783 l 1
 688 783 l 1
 646 1426 l 1
 842 1426 l 1
EndSplineSet
EndChar

StartChar: quotesingle
Encoding: 39 39 76
AltUni2: 0002bc.ffffffff.0
Width: 1229
VWidth: 0
Flags: HW
LayerCount: 2
UndoRedoHistory
Layer: 1
Undoes
EndUndoes
Redoes
EndRedoes
EndUndoRedoHistory
Fore
SplineSet
492 872 m 1
 436 1422 l 1
 670 1422 l 1
 620 872 l 1
 492 872 l 1
EndSplineSet
EndChar

StartChar: r
Encoding: 114 114 77
Width: 1229
VWidth: 0
Flags: HW
PickledData: "(dp1
S'com.typemytype.robofont.layerData'
p2
(dp3
s."
LayerCount: 2
UndoRedoHistory
Layer: 1
Undoes
EndUndoes
Redoes
EndRedoes
EndUndoRedoHistory
Fore
SplineSet
489 0 m 1
 325 0 l 1
 325 987 l 1
 459 987 l 1
 472 805 l 1
 554 946 690 1017 853 1017 c 2
 926 1017 l 1
 926 865 l 1
 830 865 l 2
 628 865 489 768 489 549 c 2
 489 0 l 1
EndSplineSet
EndChar

StartChar: s
Encoding: 115 115 78
Width: 1229
VWidth: 0
Flags: HW
PickledData: "(dp1
S'com.typemytype.robofont.layerData'
p2
(dp3
s."
LayerCount: 2
UndoRedoHistory
Layer: 1
Undoes
EndUndoes
Redoes
EndRedoes
EndUndoRedoHistory
Fore
SplineSet
925 266 m 0
 925 80 768 -22 578 -22 c 0
 430 -22 284 22 224 67 c 1
 292 176 l 1
 329 153 420 105 557 105 c 0
 687 105 779 166 779 271 c 0
 779 334 756 392 634 422 c 2
 467 464 l 2
 267 513 227 612 227 734 c 0
 227 873 337 1015 553 1017 c 1
 564 1017 l 2
 688 1017 795 990 869 950 c 1
 814 843 l 1
 761 865 675 898 568 898 c 0
 461 897 376 844 376 742 c 0
 376 681 396 631 506 603 c 2
 678 560 l 2
 840 520 925 432 925 266 c 0
EndSplineSet
EndChar

StartChar: semicolon
Encoding: 59 59 79
Width: 1229
VWidth: 0
Flags: HW
LayerCount: 2
UndoRedoHistory
Layer: 1
Undoes
EndUndoes
Redoes
EndRedoes
EndUndoRedoHistory
Fore
SplineSet
369 -282 m 1
 437 257 l 1
 682 257 l 1
 531 -282 l 1
 369 -282 l 1
700 754 m 1
 431 754 l 1
 431 1025 l 1
 700 1025 l 1
 700 754 l 1
EndSplineSet
EndChar

StartChar: seven
Encoding: 55 55 80
Width: 1229
VWidth: 0
Flags: HW
LayerCount: 2
UndoRedoHistory
Layer: 1
Undoes
EndUndoes
Redoes
EndRedoes
EndUndoRedoHistory
Fore
SplineSet
129 1191 m 1
 129 1343 l 1
 925 1343 l 1
 925 1212 l 1
 544 0 l 1
 335 0 l 1
 711 1191 l 1
 129 1191 l 1
EndSplineSet
EndChar

StartChar: six
Encoding: 54 54 81
Width: 1229
VWidth: 0
Flags: HW
LayerCount: 2
UndoRedoHistory
Layer: 1
Undoes
EndUndoes
Redoes
EndRedoes
EndUndoRedoHistory
Fore
SplineSet
576 -23 m 0
 300 -23 139 151 139 425 c 0
 139 597 202 741 286 844 c 2
 695 1343 l 1
 913 1343 l 1
 427 767 l 1
 473 796 550 820 621 820 c 0
 857 820 1003 640 1003 404 c 0
 1003 134 796 -23 576 -23 c 0
574 116 m 0
 728 116 830 241 830 400 c 0
 830 556 741 688 585 688 c 0
 407 688 317 553 317 393 c 0
 317 237 416 116 574 116 c 0
EndSplineSet
EndChar

StartChar: slash
Encoding: 47 47 82
Width: 1229
VWidth: 0
Flags: HW
LayerCount: 2
UndoRedoHistory
Layer: 1
Undoes
EndUndoes
Redoes
EndRedoes
EndUndoRedoHistory
Fore
SplineSet
781 1426 m 1
 958 1426 l 1
 320 -202 l 1
 148 -202 l 1
 781 1426 l 1
EndSplineSet
EndChar

StartChar: t
Encoding: 116 116 84
Width: 1229
VWidth: 0
Flags: HW
PickledData: "(dp1
S'com.typemytype.robofont.layerData'
p2
(dp3
s."
HStem: -3 127<580 927> 861 126<105 366 530 927>
VStem: 366 164<177 861 987 1328>
LayerCount: 2
UndoRedoHistory
Layer: 1
Undoes
EndUndoes
Redoes
EndRedoes
EndUndoRedoHistory
Fore
SplineSet
530 861 m 1
 530 398 l 2
 530 201 555 128 701 124 c 1
 927 124 l 1
 927 -3 l 1
 679 -3 l 2
 416 -3 366 140 366 439 c 2
 366 861 l 1
 87 861 l 1
 105 987 l 1
 366 987 l 1
 366 1328 l 1
 530 1376 l 1
 530 987 l 1
 927 987 l 1
 927 861 l 1
 530 861 l 1
EndSplineSet
EndChar

StartChar: three
Encoding: 51 51 85
Width: 1229
VWidth: 0
Flags: HW
LayerCount: 2
UndoRedoHistory
Layer: 1
Undoes
EndUndoes
Redoes
EndRedoes
EndUndoRedoHistory
Fore
SplineSet
519 141 m 0
 691 141 806 225 806 389 c 0
 806 576 626 633 435 634 c 1
 336 634 l 1
 336 795 l 1
 435 796 l 2
 613 799 760 838 760 1015 c 0
 760 1142 673 1214 516 1214 c 0
 384 1214 281 1163 209 1099 c 1
 147 1244 l 1
 241 1323 369 1364 537 1364 c 0
 780 1364 958 1238 958 1029 c 0
 958 845 816 759 665 723 c 1
 834 693 1008 587 1008 372 c 0
 1008 100 784 -11 510 -11 c 0
 359 -11 230 39 145 102 c 1
 208 246 l 1
 264 197 389 141 519 141 c 0
EndSplineSet
EndChar

StartChar: two
Encoding: 50 50 86
Width: 1229
VWidth: 0
Flags: HW
PickledData: "(dp1
S'com.typemytype.robofont.layerData'
p2
(dp3
s."
HStem: 0 131<378 896> 1207 158<317 634>
VStem: 716 178<821 1126>
LayerCount: 2
UndoRedoHistory
Layer: 1
Undoes
EndUndoes
Redoes
EndRedoes
EndUndoRedoHistory
Fore
SplineSet
174 1256 m 1
 261 1327 352 1364 499 1364 c 0
 755 1364 894 1207 894 979 c 0
 894 771 757 616 664 497 c 2
 378 131 l 1
 896 131 l 1
 896 0 l 1
 183 0 l 1
 183 136 l 1
 566 651 l 2
 632 740 716 847 716 975 c 0
 716 1123 640 1207 500 1207 c 0
 372 1207 305 1167 233 1115 c 1
 174 1256 l 1
EndSplineSet
EndChar

StartChar: u
Encoding: 117 117 87
Width: 1229
VWidth: 0
Flags: W
PickledData: "(dp1
S'com.typemytype.robofont.layerData'
p2
(dp3
s."
HStem: -22 126<395.258 677.51> 1 21G<796.56 949>
VStem: 176 164<160.958 988> 785 164<1 126 200.68 988>
LayerCount: 2
UndoRedoHistory
Layer: 1
Undoes
EndUndoes
Redoes
EndRedoes
EndUndoRedoHistory
Fore
SplineSet
483 -22 m 0xb0
 255 -22 176 129 176 360 c 2
 176 988 l 1
 340 988 l 1
 340 786 340 582 340 380 c 0
 340 230 345 104 541 104 c 0xb0
 665 104 785 189 785 347 c 2
 785 988 l 1
 949 988 l 1
 949 1 l 1
 798 1 l 1x70
 789 126 l 1
 725 33 633 -22 483 -22 c 0xb0
EndSplineSet
EndChar

StartChar: underscore
Encoding: 95 95 88
Width: 1229
VWidth: 0
Flags: HW
LayerCount: 2
UndoRedoHistory
Layer: 1
Undoes
EndUndoes
Redoes
EndRedoes
EndUndoRedoHistory
Fore
SplineSet
4 -266 m 1
 4 -141 l 1
 968 -141 l 1
 968 -266 l 1
 4 -266 l 1
EndSplineSet
EndChar

StartChar: v
Encoding: 118 118 90
Width: 1229
VWidth: 0
Flags: HW
PickledData: "(dp1
S'com.typemytype.robofont.layerData'
p2
(dp3
s."
LayerCount: 2
UndoRedoHistory
Layer: 1
Undoes
EndUndoes
Redoes
EndRedoes
EndUndoRedoHistory
Fore
SplineSet
555 148 m 1
 657 424 741 708 838 987 c 1
 1020 987 l 1
 643 0 l 1
 460 0 l 1
 84 987 l 1
 267 987 l 1
 555 148 l 1
EndSplineSet
EndChar

StartChar: w
Encoding: 119 119 91
Width: 1229
VWidth: 0
Flags: HW
PickledData: "(dp1
S'com.typemytype.robofont.layerData'
p2
(dp3
s."
LayerCount: 2
UndoRedoHistory
Layer: 1
Undoes
EndUndoes
Redoes
EndRedoes
EndUndoRedoHistory
Fore
SplineSet
389 0 m 1
 221 0 l 1
 29 987 l 1
 194 987 l 1
 311 175 l 1
 469 987 l 1
 664 987 l 1
 818 177 l 1
 922 987 l 1
 1076 987 l 1
 896 0 l 1
 741 0 l 1
 565 858 l 1
 389 0 l 1
EndSplineSet
EndChar

StartChar: x
Encoding: 120 120 92
Width: 1229
VWidth: 0
Flags: HW
PickledData: "(dp1
S'com.typemytype.robofont.layerData'
p2
(dp3
s."
HStem: 0 19G<129 315 807 987> 969 18G<145 338 784 967>
LayerCount: 2
UndoRedoHistory
Layer: 0
Undoes
EndUndoes
Redoes
EndRedoes
EndUndoRedoHistory
Back
SplineSet
885 1097 m 5
 1074 1097 l 5
 337 0 l 5
 143 0 l 5
 885 1097 l 5
EndSplineSet
UndoRedoHistory
Layer: 1
Undoes
EndUndoes
Redoes
EndRedoes
EndUndoRedoHistory
Fore
SplineSet
796 987 m 1
 967 987 l 1
 303 0 l 1
 129 0 l 1
 796 987 l 1
145 987 m 1
 327 987 l 1
 573 590 l 1
 644 537 l 1
 987 0 l 1
 818 0 l 1
 550 418 l 5
 472 486 l 1
 145 987 l 1
EndSplineSet
EndChar

StartChar: y
Encoding: 121 121 93
Width: 1229
VWidth: 0
Flags: HW
PickledData: "(dp1
S'com.typemytype.robofont.layerData'
p2
(dp3
s."
LayerCount: 2
UndoRedoHistory
Layer: 1
Undoes
EndUndoes
Redoes
EndRedoes
EndUndoRedoHistory
Fore
SplineSet
579 177 m 1
 841 987 l 1
 1018 987 l 1
 1018 987 761 244 678 29 c 0
 671 9 660 -17 652 -39 c 0
 535 -336 445 -369 172 -369 c 1
 153 -237 l 1
 176 -237 198 -237 218 -237 c 0
 378 -237 425 -224 496 9 c 1
 89 987 l 1
 261 987 l 1
 579 177 l 1
EndSplineSet
EndChar

StartChar: z
Encoding: 122 122 94
Width: 1229
VWidth: 0
Flags: HW
PickledData: "(dp1
S'com.typemytype.robofont.layerData'
p2
(dp3
s."
LayerCount: 2
UndoRedoHistory
Layer: 1
Undoes
EndUndoes
Redoes
EndRedoes
EndUndoRedoHistory
Fore
SplineSet
228 987 m 1
 864 987 l 1
 864 863 l 1
 383 126 l 1
 896 124 l 1
 896 0 l 1
 211 0 l 1
 211 128 l 1
 682 861 l 1
 228 861 l 1
 228 987 l 1
EndSplineSet
EndChar

StartChar: zero
Encoding: 48 48 95
Width: 1229
VWidth: 0
Flags: HW
LayerCount: 2
UndoRedoHistory
Layer: 1
Undoes
EndUndoes
Redoes
EndRedoes
EndUndoRedoHistory
Fore
SplineSet
553 1227 m 0
 376 1227 288 981 288 671 c 0
 288 518 309 382 352 282 c 1
 675 1179 l 1
 641 1210 600 1227 553 1227 c 0
553 -22 m 0
 248 -22 111 303 111 672 c 0
 111 1011 218 1364 553 1364 c 0
 888 1364 995 1011 995 672 c 0
 995 303 858 -22 553 -22 c 0
757 1053 m 1
 439 158 l 1
 471 131 510 117 553 117 c 0
 729 117 819 361 819 671 c 0
 819 819 797 954 757 1053 c 1
EndSplineSet
EndChar
